<?xml version="1.0" encoding="UTF-8" standalone="no"?>
<!DOCTYPE svg PUBLIC "-//W3C//DTD SVG 1.1//EN"
 "http://www.w3.org/Graphics/SVG/1.1/DTD/svg11.dtd">
<!-- Generated by graphviz version 2.43.0 (0)
 -->
<!-- Title: %3 Pages: 1 -->
<svg width="182pt" height="188pt"
 viewBox="0.00 0.00 181.54 188.00" xmlns="http://www.w3.org/2000/svg" xmlns:xlink="http://www.w3.org/1999/xlink">
<g id="graph0" class="graph" transform="scale(1 1) rotate(0) translate(4 184)">
<title>%3</title>
<polygon fill="white" stroke="transparent" points="-4,4 -4,-184 177.54,-184 177.54,4 -4,4"/>
<!-- Data -->
<g id="node1" class="node">
<title>Data</title>
<ellipse fill="none" stroke="black" cx="90.35" cy="-162" rx="31.7" ry="18"/>
<text text-anchor="middle" x="90.35" y="-158.3" font-family="Times-Roman" font-size="14.00">Data</text>
</g>
<!-- Template -->
<g id="node2" class="node">
<title>Template</title>
<ellipse fill="none" stroke="black" cx="51.35" cy="-90" rx="51.19" ry="18"/>
<text text-anchor="middle" x="51.35" y="-86.3" font-family="Times-Roman" font-size="14.00">Template</text>
</g>
<!-- Data&#45;&gt;Template -->
<g id="edge1" class="edge">
<title>Data&#45;&gt;Template</title>
<path fill="none" stroke="black" d="M76.21,-135.63C72.85,-129.59 69.25,-123.14 65.87,-117.07"/>
<polygon fill="black" stroke="black" points="73.18,-137.38 81.1,-144.41 79.29,-133.97 73.18,-137.38"/>
<polygon fill="black" stroke="black" points="68.72,-114.99 60.79,-107.96 62.6,-118.4 68.72,-114.99"/>
</g>
<!-- Rendered File(s) -->
<g id="node3" class="node">
<title>Rendered File(s)</title>
<ellipse fill="none" stroke="black" cx="90.35" cy="-18" rx="83.39" ry="18"/>
<text text-anchor="middle" x="90.35" y="-14.3" font-family="Times-Roman" font-size="14.00">Rendered File(s)</text>
</g>
<!-- Template&#45;&gt;Rendered File(s) -->
<g id="edge2" class="edge">
<title>Template&#45;&gt;Rendered File(s)</title>
<path fill="none" stroke="black" d="M65.75,-63.14C69.03,-57.26 72.51,-51.02 75.79,-45.13"/>
<polygon fill="black" stroke="black" points="62.6,-61.62 60.79,-72.05 68.71,-65.02 62.6,-61.62"/>
<polygon fill="black" stroke="black" points="78.91,-46.71 80.72,-36.28 72.8,-43.31 78.91,-46.71"/>
</g>
<!-- Rendered File(s)&#45;&gt;Data -->
<g id="edge3" class="edge">
<title>Rendered File(s)&#45;&gt;Data</title>
<path fill="none" stroke="black" d="M103.06,-45.37C106.45,-53.7 109.64,-63.06 111.35,-72 114.35,-87.72 114.35,-92.28 111.35,-108 109.61,-117.08 106.35,-126.6 102.9,-135.02"/>
<polygon fill="black" stroke="black" points="106.25,-43.95 99.06,-36.17 99.83,-46.73 106.25,-43.95"/>
<polygon fill="black" stroke="black" points="99.64,-133.74 98.85,-144.31 106.05,-136.54 99.64,-133.74"/>
</g>
</g>
</svg>
