<?xml version="1.0" encoding="UTF-8" standalone="no"?>
<!DOCTYPE svg PUBLIC "-//W3C//DTD SVG 1.1//EN"
 "http://www.w3.org/Graphics/SVG/1.1/DTD/svg11.dtd">
<!-- Generated by graphviz version 2.43.0 (0)
 -->
<!-- Title: %3 Pages: 1 -->
<svg width="184pt" height="260pt"
 viewBox="0.00 0.00 184.14 260.00" xmlns="http://www.w3.org/2000/svg" xmlns:xlink="http://www.w3.org/1999/xlink">
<g id="graph0" class="graph" transform="scale(1 1) rotate(0) translate(4 256)">
<title>%3</title>
<polygon fill="white" stroke="transparent" points="-4,4 -4,-256 180.14,-256 180.14,4 -4,4"/>
<!-- Data -->
<g id="node1" class="node">
<title>Data</title>
<ellipse fill="none" stroke="black" cx="90.35" cy="-234" rx="31.7" ry="18"/>
<text text-anchor="middle" x="90.35" y="-230.3" font-family="Times-Roman" font-size="14.00">Data</text>
</g>
<!-- Template -->
<g id="node2" class="node">
<title>Template</title>
<ellipse fill="none" stroke="black" cx="51.35" cy="-162" rx="51.19" ry="18"/>
<text text-anchor="middle" x="51.35" y="-158.3" font-family="Times-Roman" font-size="14.00">Template</text>
</g>
<!-- Data&#45;&gt;Template -->
<g id="edge1" class="edge">
<title>Data&#45;&gt;Template</title>
<path fill="none" stroke="black" d="M76.21,-207.63C72.85,-201.59 69.25,-195.14 65.87,-189.07"/>
<polygon fill="black" stroke="black" points="73.18,-209.38 81.1,-216.41 79.29,-205.97 73.18,-209.38"/>
<polygon fill="black" stroke="black" points="68.72,-186.99 60.79,-179.96 62.6,-190.4 68.72,-186.99"/>
</g>
<!-- File System Data -->
<g id="node3" class="node">
<title>File System Data</title>
<ellipse fill="none" stroke="black" cx="90.35" cy="-90" rx="85.59" ry="18"/>
<text text-anchor="middle" x="90.35" y="-86.3" font-family="Times-Roman" font-size="14.00">File System Data</text>
</g>
<!-- Template&#45;&gt;File System Data -->
<g id="edge2" class="edge">
<title>Template&#45;&gt;File System Data</title>
<path fill="none" stroke="black" d="M65.75,-135.14C69.03,-129.26 72.51,-123.02 75.79,-117.13"/>
<polygon fill="black" stroke="black" points="62.6,-133.62 60.79,-144.05 68.71,-137.02 62.6,-133.62"/>
<polygon fill="black" stroke="black" points="78.91,-118.71 80.72,-108.28 72.8,-115.31 78.91,-118.71"/>
</g>
<!-- File System Data&#45;&gt;Data -->
<g id="edge3" class="edge">
<title>File System Data&#45;&gt;Data</title>
<path fill="none" stroke="black" d="M103.06,-117.37C106.45,-125.7 109.64,-135.06 111.35,-144 114.35,-159.72 114.35,-164.28 111.35,-180 109.61,-189.08 106.35,-198.6 102.9,-207.02"/>
<polygon fill="black" stroke="black" points="106.25,-115.95 99.06,-108.17 99.83,-118.73 106.25,-115.95"/>
<polygon fill="black" stroke="black" points="99.64,-205.74 98.85,-216.31 106.05,-208.54 99.64,-205.74"/>
</g>
<!-- Rendered File(s) -->
<g id="node4" class="node">
<title>Rendered File(s)</title>
<ellipse fill="none" stroke="black" cx="90.35" cy="-18" rx="83.39" ry="18"/>
<text text-anchor="middle" x="90.35" y="-14.3" font-family="Times-Roman" font-size="14.00">Rendered File(s)</text>
</g>
<!-- File System Data&#45;&gt;Rendered File(s) -->
<g id="edge4" class="edge">
<title>File System Data&#45;&gt;Rendered File(s)</title>
<path fill="none" stroke="black" d="M90.35,-71.7C90.35,-63.98 90.35,-54.71 90.35,-46.11"/>
<polygon fill="black" stroke="black" points="93.85,-46.1 90.35,-36.1 86.85,-46.1 93.85,-46.1"/>
</g>
</g>
</svg>
