<?xml version="1.0" encoding="UTF-8" standalone="no"?>
<!DOCTYPE svg PUBLIC "-//W3C//DTD SVG 1.1//EN"
 "http://www.w3.org/Graphics/SVG/1.1/DTD/svg11.dtd">
<!-- Generated by graphviz version 2.43.0 (0)
 -->
<!-- Title: %3 Pages: 1 -->
<svg width="174pt" height="188pt"
 viewBox="0.00 0.00 174.39 188.00" xmlns="http://www.w3.org/2000/svg" xmlns:xlink="http://www.w3.org/1999/xlink">
<g id="graph0" class="graph" transform="scale(1 1) rotate(0) translate(4 184)">
<title>%3</title>
<polygon fill="white" stroke="transparent" points="-4,4 -4,-184 170.39,-184 170.39,4 -4,4"/>
<!-- Data -->
<g id="node1" class="node">
<title>Data</title>
<ellipse fill="none" stroke="black" cx="83.19" cy="-162" rx="31.7" ry="18"/>
<text text-anchor="middle" x="83.19" y="-158.3" font-family="Times-Roman" font-size="14.00">Data</text>
</g>
<!-- Template -->
<g id="node2" class="node">
<title>Template</title>
<ellipse fill="none" stroke="black" cx="83.19" cy="-90" rx="51.19" ry="18"/>
<text text-anchor="middle" x="83.19" y="-86.3" font-family="Times-Roman" font-size="14.00">Template</text>
</g>
<!-- Data&#45;&gt;Template -->
<g id="edge1" class="edge">
<title>Data&#45;&gt;Template</title>
<path fill="none" stroke="black" d="M83.19,-143.7C83.19,-135.98 83.19,-126.71 83.19,-118.11"/>
<polygon fill="black" stroke="black" points="86.69,-118.1 83.19,-108.1 79.69,-118.1 86.69,-118.1"/>
</g>
<!-- Rendered File(s) -->
<g id="node3" class="node">
<title>Rendered File(s)</title>
<ellipse fill="none" stroke="black" cx="83.19" cy="-18" rx="83.39" ry="18"/>
<text text-anchor="middle" x="83.19" y="-14.3" font-family="Times-Roman" font-size="14.00">Rendered File(s)</text>
</g>
<!-- Template&#45;&gt;Rendered File(s) -->
<g id="edge2" class="edge">
<title>Template&#45;&gt;Rendered File(s)</title>
<path fill="none" stroke="black" d="M83.19,-71.7C83.19,-63.98 83.19,-54.71 83.19,-46.11"/>
<polygon fill="black" stroke="black" points="86.69,-46.1 83.19,-36.1 79.69,-46.1 86.69,-46.1"/>
</g>
</g>
</svg>
