<?xml version="1.0" encoding="UTF-8" standalone="no"?>
<!DOCTYPE svg PUBLIC "-//W3C//DTD SVG 1.1//EN"
 "http://www.w3.org/Graphics/SVG/1.1/DTD/svg11.dtd">
<!-- Generated by graphviz version 2.43.0 (0)
 -->
<!-- Title: %3 Pages: 1 -->
<svg width="495pt" height="260pt"
 viewBox="0.00 0.00 494.63 260.00" xmlns="http://www.w3.org/2000/svg" xmlns:xlink="http://www.w3.org/1999/xlink">
<g id="graph0" class="graph" transform="scale(1 1) rotate(0) translate(4 256)">
<title>%3</title>
<polygon fill="white" stroke="transparent" points="-4,4 -4,-256 490.63,-256 490.63,4 -4,4"/>
<!-- Content -->
<g id="node1" class="node">
<title>Content</title>
<ellipse fill="none" stroke="black" cx="185.64" cy="-234" rx="46.29" ry="18"/>
<text text-anchor="middle" x="185.64" y="-230.3" font-family="Times-Roman" font-size="14.00">Content</text>
</g>
<!-- html &#39;readme&#39; -->
<g id="node2" class="node">
<title>html &#39;readme&#39;</title>
<ellipse fill="none" stroke="black" cx="185.64" cy="-162" rx="73.39" ry="18"/>
<text text-anchor="middle" x="185.64" y="-158.3" font-family="Times-Roman" font-size="14.00">html &#39;readme&#39;</text>
</g>
<!-- Content&#45;&gt;html &#39;readme&#39; -->
<g id="edge1" class="edge">
<title>Content&#45;&gt;html &#39;readme&#39;</title>
<path fill="none" stroke="black" d="M185.64,-215.7C185.64,-207.98 185.64,-198.71 185.64,-190.11"/>
<polygon fill="black" stroke="black" points="189.14,-190.1 185.64,-180.1 182.14,-190.1 189.14,-190.1"/>
</g>
<!-- HtmlDerivation -->
<g id="node3" class="node">
<title>HtmlDerivation</title>
<ellipse fill="none" stroke="black" cx="78.64" cy="-90" rx="78.79" ry="18"/>
<text text-anchor="middle" x="78.64" y="-86.3" font-family="Times-Roman" font-size="14.00">HtmlDerivation</text>
</g>
<!-- html &#39;readme&#39;&#45;&gt;HtmlDerivation -->
<g id="edge2" class="edge">
<title>html &#39;readme&#39;&#45;&gt;HtmlDerivation</title>
<path fill="none" stroke="black" d="M161.1,-144.94C146.52,-135.4 127.84,-123.18 111.95,-112.79"/>
<polygon fill="black" stroke="black" points="113.73,-109.77 103.45,-107.23 109.9,-115.63 113.73,-109.77"/>
</g>
<!-- MarkdownText -->
<g id="node4" class="node">
<title>MarkdownText</title>
<ellipse fill="none" stroke="black" cx="185.64" cy="-18" rx="75.29" ry="18"/>
<text text-anchor="middle" x="185.64" y="-14.3" font-family="Times-Roman" font-size="14.00">MarkdownText</text>
</g>
<!-- html &#39;readme&#39;&#45;&gt;MarkdownText -->
<g id="edge3" class="edge">
<title>html &#39;readme&#39;&#45;&gt;MarkdownText</title>
<path fill="none" stroke="black" d="M185.64,-143.87C185.64,-119.67 185.64,-75.21 185.64,-46.39"/>
<polygon fill="black" stroke="black" points="189.14,-46.19 185.64,-36.19 182.14,-46.19 189.14,-46.19"/>
</g>
<!-- markdown &#39;readme&#39; -->
<g id="node5" class="node">
<title>markdown &#39;readme&#39;</title>
<ellipse fill="none" stroke="black" cx="314.64" cy="-90" rx="100.98" ry="18"/>
<text text-anchor="middle" x="314.64" y="-86.3" font-family="Times-Roman" font-size="14.00">markdown &#39;readme&#39;</text>
</g>
<!-- html &#39;readme&#39;&#45;&gt;markdown &#39;readme&#39; -->
<g id="edge4" class="edge">
<title>html &#39;readme&#39;&#45;&gt;markdown &#39;readme&#39;</title>
<path fill="none" stroke="black" d="M214.59,-145.29C232.55,-135.55 255.85,-122.9 275.45,-112.27"/>
<polygon fill="black" stroke="black" points="277.32,-115.23 284.44,-107.39 273.99,-109.08 277.32,-115.23"/>
</g>
<!-- markdown &#39;readme&#39;&#45;&gt;MarkdownText -->
<g id="edge6" class="edge">
<title>markdown &#39;readme&#39;&#45;&gt;MarkdownText</title>
<path fill="none" stroke="black" d="M284.72,-72.76C266.48,-62.86 242.98,-50.12 223.46,-39.52"/>
<polygon fill="black" stroke="black" points="224.97,-36.36 214.51,-34.67 221.63,-42.51 224.97,-36.36"/>
</g>
<!-- MarkdownDerivation -->
<g id="node6" class="node">
<title>MarkdownDerivation</title>
<ellipse fill="none" stroke="black" cx="382.64" cy="-18" rx="103.98" ry="18"/>
<text text-anchor="middle" x="382.64" y="-14.3" font-family="Times-Roman" font-size="14.00">MarkdownDerivation</text>
</g>
<!-- markdown &#39;readme&#39;&#45;&gt;MarkdownDerivation -->
<g id="edge5" class="edge">
<title>markdown &#39;readme&#39;&#45;&gt;MarkdownDerivation</title>
<path fill="none" stroke="black" d="M331.1,-72.05C339.54,-63.37 349.96,-52.64 359.22,-43.11"/>
<polygon fill="black" stroke="black" points="361.88,-45.4 366.33,-35.79 356.86,-40.52 361.88,-45.4"/>
</g>
</g>
</svg>
